<?xml version="1.0" encoding="UTF-8"?>
<svg version="1.1" xmlns="http://www.w3.org/2000/svg" width="805" height="250">
<path d="M0 0 C1.02477951 -0.00287018 2.04955902 -0.00574036 3.10539246 -0.00869751 C5.25768592 -0.01072878 7.40999825 -0.00526491 9.56225586 0.00732422 C12.86288263 0.02347378 16.1623002 0.0074009 19.46289062 -0.01171875 C21.55859645 -0.00973777 23.65430153 -0.00589711 25.75 0 C26.73748734 -0.00607269 27.72497467 -0.01214539 28.74238586 -0.0184021 C30.11477669 -0.00421738 30.11477669 -0.00421738 31.51489258 0.01025391 C32.31905106 0.01264069 33.12320953 0.01502747 33.95173645 0.01748657 C36.55140065 0.49105638 37.42270319 1.35306355 39.04296875 3.3984375 C40.98479676 8.63800092 40.26892559 14.77356358 40.29296875 20.2734375 C40.32390625 22.03107422 40.32390625 22.03107422 40.35546875 23.82421875 C40.40491412 34.71456215 40.40491412 34.71456215 37.04296875 39.3984375 C34.10588874 40.8669775 31.1495317 40.52863299 27.93115234 40.51196289 C26.83343758 40.51218193 26.83343758 40.51218193 25.71354675 40.5124054 C23.28946999 40.51170753 20.86546963 40.50392104 18.44140625 40.49609375 C16.7627466 40.49422912 15.08408641 40.49280543 13.40542603 40.49180603 C8.98309837 40.48798438 4.56080347 40.47815709 0.13848877 40.46710205 C-4.3725134 40.45688036 -8.88352084 40.45230678 -13.39453125 40.44726562 C-22.24871232 40.43653452 -31.10286906 40.41946231 -39.95703125 40.3984375 C-39.94333496 41.65922119 -39.92963867 42.92000488 -39.91552734 44.21899414 C-39.80849219 54.07189469 -45.21358281 63.33407923 -51.8046875 70.37109375 C-60.81905248 78.81198024 -70.35633918 80.54167834 -82.3359375 80.6015625 C-83.22562729 80.60726257 -84.11531708 80.61296265 -85.03196716 80.61883545 C-86.90533268 80.62824578 -88.77871445 80.63480358 -90.65209961 80.63867188 C-93.51380032 80.64841798 -96.37479439 80.67949477 -99.23632812 80.7109375 C-101.06119368 80.71746464 -102.88606433 80.72271624 -104.7109375 80.7265625 C-105.5631337 80.7389093 -106.4153299 80.7512561 -107.29335022 80.76397705 C-112.46237449 80.74461291 -116.11756892 80.23789983 -119.95703125 76.3984375 C-120.20002879 71.89304222 -120.18556967 67.38207801 -120.19726562 62.87084961 C-120.2069473 60.60558016 -120.23794534 58.3412272 -120.26953125 56.07617188 C-120.27606358 54.63542206 -120.28131315 53.19466575 -120.28515625 51.75390625 C-120.29450195 50.44059326 -120.30384766 49.12728027 -120.31347656 47.77416992 C-119.93931653 44.23066942 -119.49741777 42.84097375 -116.95703125 40.3984375 C-113.39980262 39.21269462 -110.57926581 39.27853557 -106.82348633 39.28491211 C-106.10128403 39.28476608 -105.37908173 39.28462006 -104.63499451 39.2844696 C-102.24881991 39.28516605 -99.86272346 39.2929459 -97.4765625 39.30078125 C-95.82175235 39.30264638 -94.16694164 39.30406984 -92.51213074 39.30506897 C-88.15722122 39.30888665 -83.80234507 39.31871055 -79.44744873 39.32977295 C-75.00338187 39.34000317 -70.55930962 39.34457005 -66.11523438 39.34960938 C-57.39581802 39.36033348 -48.67642879 39.37740093 -39.95703125 39.3984375 C-39.96927734 38.13620361 -39.98152344 36.87396973 -39.99414062 35.57348633 C-40.09215899 25.47050127 -34.54570786 16.71011933 -27.95703125 9.3984375 C-19.50598862 2.15679364 -10.88498418 -0.06763193 0 0 Z " fill="#286DFF" transform="translate(186.95703125,118.6015625)"/>
<path d="M0 0 C1.53292442 -0.00218285 1.53292442 -0.00218285 3.09681702 -0.00440979 C5.23718138 -0.00276162 7.37755896 0.00867697 9.51782227 0.02954102 C12.80079889 0.05873284 16.08218116 0.05008007 19.36523438 0.03710938 C21.45183078 0.04334065 23.53842211 0.05172679 25.625 0.0625 C26.60621323 0.05956436 27.58742645 0.05662872 28.59837341 0.05360413 C29.50684525 0.0662883 30.41531708 0.07897247 31.35131836 0.09204102 C32.14944443 0.097444 32.9475705 0.10284698 33.7698822 0.1084137 C36.35592266 0.59092829 37.23203709 1.46146124 38.84765625 3.49609375 C40.80243322 8.74713364 40.03215561 14.9214208 40.03515625 20.43359375 C40.04740234 21.61373047 40.05964844 22.79386719 40.07226562 24.00976562 C40.07419922 25.14865234 40.07613281 26.28753906 40.078125 27.4609375 C40.08223389 28.49855225 40.08634277 29.53616699 40.09057617 30.60522461 C39.83373117 33.66180922 39.26457591 35.78109286 37.84765625 38.49609375 C34.26893364 40.88190882 31.74971685 40.7661242 27.62231445 40.72314453 C26.89035858 40.72343658 26.15840271 40.72372864 25.40426636 40.72402954 C22.98553604 40.72263649 20.56711399 40.70707664 18.1484375 40.69140625 C16.47120838 40.68767603 14.79397708 40.6848291 13.116745 40.68283081 C8.70260602 40.67519507 4.28859869 40.6555471 -0.12548828 40.63342285 C-4.6298647 40.61296315 -9.13426239 40.60382883 -13.63867188 40.59375 C-22.47662033 40.57230115 -31.31447109 40.53816591 -40.15234375 40.49609375 C-40.13864746 41.75687744 -40.12495117 43.01766113 -40.11083984 44.31665039 C-40.0035013 54.19747922 -45.43354925 63.36033681 -51.96484375 70.46875 C-60.91018928 78.96322126 -71.40998378 80.63814866 -83.3125 80.69921875 C-84.61374062 80.70776886 -84.61374062 80.70776886 -85.94126892 80.7164917 C-87.76755569 80.72590041 -89.59385911 80.73245917 -91.42016602 80.73632812 C-94.20944584 80.74607489 -96.99800083 80.77715334 -99.78710938 80.80859375 C-101.5664019 80.81512088 -103.34569966 80.82037249 -105.125 80.82421875 C-106.37048363 80.84273895 -106.37048363 80.84273895 -107.64112854 80.8616333 C-112.29941913 80.84373516 -115.37214902 80.5313338 -119.15234375 77.49609375 C-121.34589643 73.10898839 -120.37944648 67.19653009 -120.39257812 62.3203125 C-120.40227609 60.13633021 -120.43329506 57.9532923 -120.46484375 55.76953125 C-120.47137483 54.37891183 -120.47662489 52.98828569 -120.48046875 51.59765625 C-120.48981445 50.33260254 -120.49916016 49.06754883 -120.50878906 47.76416016 C-120.12924945 44.28435386 -119.63825514 42.90991808 -117.15234375 40.49609375 C-113.59511512 39.31035087 -110.77457831 39.37619182 -107.01879883 39.38256836 C-106.29659653 39.38242233 -105.57439423 39.38227631 -104.83030701 39.38212585 C-102.44413241 39.3828223 -100.05803596 39.39060215 -97.671875 39.3984375 C-96.01706485 39.40030263 -94.36225414 39.40172609 -92.70744324 39.40272522 C-88.35253372 39.4065429 -83.99765757 39.4163668 -79.64276123 39.4274292 C-75.19869437 39.43765942 -70.75462212 39.4422263 -66.31054688 39.44726562 C-57.59113052 39.45798973 -48.87174129 39.47505718 -40.15234375 39.49609375 C-40.16080322 38.39233398 -40.1692627 37.28857422 -40.17797852 36.15136719 C-40.10665987 25.9820071 -35.16601482 16.51906662 -28.046875 9.38671875 C-19.57202131 2.36683994 -10.8776361 -0.12636362 0 0 Z " fill="#5498FF" transform="translate(187.15234375,51.50390625)"/>
<path d="M0 0 C4.94843249 3.88483498 8.31023518 8.37554832 9.83203125 14.55859375 C9.33703125 16.04359375 9.33703125 16.04359375 8.83203125 17.55859375 C4.21203125 18.21859375 -0.40796875 18.87859375 -5.16796875 19.55859375 C-6.05484375 18.27984375 -6.94171875 17.00109375 -7.85546875 15.68359375 C-11.14963747 11.34504352 -11.14963747 11.34504352 -16.16796875 9.55859375 C-22.90239798 8.83496357 -28.69690792 9.26261065 -34.16796875 13.55859375 C-39.54843061 19.85919257 -39.47358459 27.92810076 -39.38671875 35.84375 C-38.8936262 41.96338072 -36.59542806 47.25411942 -32.16796875 51.55859375 C-26.90347303 54.55213053 -22.1042561 55.496942 -16.16796875 54.55859375 C-13.68240797 53.66286124 -11.3702533 52.62959543 -9.015625 51.43359375 C-7.16796875 50.55859375 -7.16796875 50.55859375 -5.16796875 50.55859375 C-5.16796875 47.58859375 -5.16796875 44.61859375 -5.16796875 41.55859375 C-10.44796875 41.55859375 -15.72796875 41.55859375 -21.16796875 41.55859375 C-21.16796875 37.26859375 -21.16796875 32.97859375 -21.16796875 28.55859375 C-10.60796875 28.55859375 -0.04796875 28.55859375 10.83203125 28.55859375 C10.95578125 33.24046875 11.07953125 37.92234375 11.20703125 42.74609375 C11.28896729 44.94881958 11.28896729 44.94881958 11.37255859 47.19604492 C11.49148876 56.44254563 11.49148876 56.44254563 9.68286133 59.50341797 C6.59937007 62.20279431 2.55253827 63.80515354 -1.23046875 65.30859375 C-2.23207031 65.7159375 -3.23367188 66.12328125 -4.265625 66.54296875 C-14.58085159 70.1526039 -26.86413966 69.99555033 -36.90625 65.6875 C-45.93682025 61.18001329 -51.01441753 55.32122305 -54.421875 45.890625 C-57.93297469 34.91614063 -56.9781413 22.75623772 -52.13671875 12.33984375 C-48.0868872 5.22527481 -41.77991641 -0.39662719 -34.16796875 -3.44140625 C-23.53283008 -6.21239651 -9.28718548 -6.17472332 0 0 Z " fill="#FCFAFA" transform="translate(317.16796875,73.44140625)"/>
<path d="M0 0 C5.31309962 4.13241082 8.70643212 8.76650511 10.6875 15.25 C11.66603825 23.86113659 11.54662702 31.84043666 6.48828125 39.19921875 C2.0040794 44.65079897 -2.92476595 48.60815068 -10 50 C-19.56365706 50.85540041 -26.56511681 49.14015473 -34.8125 44.375 C-41.19278958 37.44782845 -42.72956169 30.43440982 -42.59130859 21.265625 C-42.18460572 13.22473285 -39.59948593 7.18018812 -33.75 1.5625 C-23.8324412 -5.98253935 -10.64042395 -6.18123435 0 0 Z M-25 12 C-28.16440622 16.97591412 -28.38881082 21.93639091 -27.578125 27.6640625 C-26.54225439 31.84953969 -24.60727588 34.78068726 -21.1875 37.375 C-17.89024117 38.31707395 -15.4187401 38.41260656 -12 38 C-7.83969615 35.25262953 -5.09486113 32.92687509 -4 28 C-3.44928824 22.03228716 -3.39642806 17.04500072 -7 12 C-10.02766104 9.44330846 -12.08495982 8.1525067 -16 7.5 C-19.99160539 8.16526757 -21.96855824 9.3053851 -25 12 Z " fill="#FDFBFB" transform="translate(379,92)"/>
<path d="M0 0 C6.18485054 3.65665725 8.76675625 8.67188079 10.78125 15.3984375 C11.4312536 19.65767162 11.2265625 24.00785893 11.2265625 28.31640625 C0.3365625 28.31640625 -10.5534375 28.31640625 -21.7734375 28.31640625 C-20.02130109 35.5165026 -20.02130109 35.5165026 -14.7734375 39.31640625 C-11.5120028 39.77300711 -9.70192766 40.01277387 -7.0234375 38.00390625 C-5.89171951 36.47608697 -4.82810002 34.89840003 -3.7734375 33.31640625 C-2.00223947 33.45774124 -0.23148463 33.60463833 1.5390625 33.75390625 C2.52519531 33.83511719 3.51132812 33.91632813 4.52734375 34 C7.2265625 34.31640625 7.2265625 34.31640625 10.2265625 35.31640625 C9.41800961 41.19120825 6.54887442 44.42379785 2.2265625 48.31640625 C-4.48454326 52.7513164 -13.46946221 52.14265366 -21.10546875 50.953125 C-27.16940372 49.19494267 -31.39627669 44.48520637 -34.7734375 39.31640625 C-36.59513562 34.33473987 -37.13008564 29.64577938 -37.0859375 24.37890625 C-37.08029785 23.67451416 -37.0746582 22.97012207 -37.06884766 22.24438477 C-36.88469049 14.37394513 -34.9795539 8.67991452 -29.55859375 2.859375 C-21.0508259 -4.49416614 -9.90741977 -4.51338012 0 0 Z M-18.7734375 11.31640625 C-21.59380864 14.33128574 -21.7734375 14.98362959 -21.7734375 19.31640625 C-15.5034375 19.31640625 -9.2334375 19.31640625 -2.7734375 19.31640625 C-4.01446191 12.47951244 -4.01446191 12.47951244 -7.7109375 9.87890625 C-12.50820985 7.43131832 -14.54143789 8.35400652 -18.7734375 11.31640625 Z " fill="#FDFBFB" transform="translate(573.7734375,90.68359375)"/>
<path d="M0 0 C4.95 0 9.9 0 15 0 C15 18.81 15 37.62 15 57 C26.55 57 38.1 57 50 57 C50 61.29 50 65.58 50 70 C33.5 70 17 70 0 70 C0 46.9 0 23.8 0 0 Z " fill="#FDFBFB" transform="translate(400,71)"/>
<path d="M0 0 C4.95 0 9.9 0 15 0 C18.96 10.23 22.92 20.46 27 31 C30.20548322 21.92189205 30.20548322 21.92189205 33.40185547 12.84057617 C33.80291504 11.71111572 34.20397461 10.58165527 34.6171875 9.41796875 C35.02565918 8.26063232 35.43413086 7.1032959 35.85498047 5.91088867 C37 3 37 3 39 0 C42.2578125 -0.29296875 42.2578125 -0.29296875 46.125 -0.1875 C48.04699219 -0.14689453 48.04699219 -0.14689453 50.0078125 -0.10546875 C50.99523437 -0.07066406 51.98265625 -0.03585938 53 0 C52.37493256 5.87648848 50.20127453 10.96764066 48 16.39453125 C47.60425781 17.38249191 47.20851563 18.37045258 46.80078125 19.38835144 C45.96638746 21.46797145 45.12908646 23.5464271 44.2890625 25.6237793 C42.99850609 28.81619545 41.71727943 32.01223472 40.4375 35.20898438 C39.62554189 37.22938453 38.81306024 39.24957437 38 41.26953125 C37.61457031 42.22986771 37.22914063 43.19020416 36.83203125 44.17964172 C36.47496094 45.06113388 36.11789062 45.94262604 35.75 46.85083008 C35.27820313 48.01948357 35.27820313 48.01948357 34.796875 49.21174622 C34 51 34 51 33 52 C30.81360547 52.07258946 28.62499611 52.08373783 26.4375 52.0625 C24.64119141 52.04896484 24.64119141 52.04896484 22.80859375 52.03515625 C21.88175781 52.02355469 20.95492188 52.01195312 20 52 C8.49981995 24.33273317 8.49981995 24.33273317 3.25 11.375 C2.91548828 10.55999023 2.58097656 9.74498047 2.23632812 8.90527344 C0 3.34811828 0 3.34811828 0 0 Z " fill="#FDFBFB" transform="translate(480,89)"/>
<path d="M0 0 C4.95 0 9.9 0 15 0 C15 17.16 15 34.32 15 52 C10.05 52 5.1 52 0 52 C0 34.84 0 17.68 0 0 Z " fill="#FDFBFB" transform="translate(459,89)"/>
<path d="M0 0 C1.98 0 3.96 0 6 0 C8.15294651 5.28830549 10.27933894 10.55123997 12 16 C14.04060129 12.93909807 14.95646418 10.3655313 16.0625 6.875 C17.89630931 1.10369069 17.89630931 1.10369069 19 0 C20.65 0 22.3 0 24 0 C24 7.92 24 15.84 24 24 C22.68 24 21.36 24 20 24 C19.67 20.04 19.34 16.08 19 12 C17.68 15.96 16.36 19.92 15 24 C13.35 24 11.7 24 10 24 C8.35 19.38 6.7 14.76 5 10 C4.67 14.62 4.34 19.24 4 24 C2.68 24 1.36 24 0 24 C0 16.08 0 8.16 0 0 Z " fill="#FDFBFB" transform="translate(437,149)"/>
<path d="M0 0 C8.58 0 17.16 0 26 0 C24.97966364 5.10168182 24.32301122 6.21203568 20.9375 9.8125 C20.20402344 10.60269531 19.47054688 11.39289063 18.71484375 12.20703125 C18.14894531 12.79871094 17.58304687 13.39039063 17 14 C19.97 14.33 22.94 14.66 26 15 C26 15.99 26 16.98 26 18 C20.72 18 15.44 18 10 18 C10.97780569 13.11097154 11.38789796 12.09298219 14.5625 8.6875 C15.20316406 7.99011719 15.84382813 7.29273438 16.50390625 6.57421875 C16.99761719 6.05472656 17.49132812 5.53523437 18 5 C11.91848964 3.84120652 11.91848964 3.84120652 6 5 C4.71553081 7.56893838 4.67022856 9.76576337 4.4375 12.625 C4.31181641 14.12933594 4.31181641 14.12933594 4.18359375 15.6640625 C4.12300781 16.43492187 4.06242187 17.20578125 4 18 C2.68 18 1.36 18 0 18 C0 12.06 0 6.12 0 0 Z " fill="#FDFBFB" transform="translate(472,155)"/>
<path d="M0 0 C2.371875 -0.103125 4.74375 -0.20625 7.1875 -0.3125 C7.92508545 -0.35802002 8.6626709 -0.40354004 9.42260742 -0.45043945 C13.35619453 -0.53277652 14.85396972 -0.11951477 17.92578125 2.39453125 C21.22590692 6.53988684 21.33052184 9.25938181 21.29296875 14.44921875 C20.8511932 18.29561119 19.52418105 20.10461586 17 23 C13.93618406 24.53190797 10.73034134 24.10243613 7.375 24.0625 C4.94125 24.041875 2.5075 24.02125 0 24 C0 16.08 0 8.16 0 0 Z M4 3 C4 8.94 4 14.88 4 21 C10.20170466 21.41594656 10.20170466 21.41594656 15 19 C17.48582268 14.85696221 17.0250641 11.61278847 16 7 C14.36221601 3.7882039 14.36221601 3.7882039 11.6171875 3.48828125 C10.71226562 3.43027344 9.80734375 3.37226563 8.875 3.3125 C7.26625 3.209375 5.6575 3.10625 4 3 Z " fill="#FDFBFB" transform="translate(528,149)"/>
<path d="M0 0 C2.9375 2.125 2.9375 2.125 5 5 C5 6.98 5 8.96 5 11 C-0.94 11.495 -0.94 11.495 -7 12 C-6.67 12.66 -6.34 13.32 -6 14 C-3.58354218 14.16687448 -3.58354218 14.16687448 -1 14 C-0.34 13.34 0.32 12.68 1 12 C2.32 12 3.64 12 5 12 C3.75023244 15.65316671 3.32901247 16.78065836 0 19 C-4.28482877 19.55544077 -6.29695542 19.46371025 -9.9375 17.0625 C-12.34599732 13.48624641 -12.74203371 11.39468093 -12.48046875 7.16015625 C-11.01330635 0.56388952 -6.10584667 -1.09032976 0 0 Z M-5 3 C-5.66 4.32 -6.32 5.64 -7 7 C-4.36 7 -1.72 7 1 7 C-0.29467677 4.94009522 -0.29467677 4.94009522 -2 3 C-2.99 3 -3.98 3 -5 3 Z " fill="#FDFBFB" transform="translate(563,155)"/>
<path d="M0 0 C1.17369141 -0.02513672 1.17369141 -0.02513672 2.37109375 -0.05078125 C4.5625 0.3125 4.5625 0.3125 6.3046875 1.3515625 C8.23560621 4.36187677 8.13645488 7.52551942 8.25 11 C8.30124023 12.0528418 8.30124023 12.0528418 8.35351562 13.12695312 C8.43579947 14.85491387 8.5008324 16.58368072 8.5625 18.3125 C6.29372896 18.56125561 4.02230265 18.78589246 1.75 19 C0.48542969 19.12761719 -0.77914063 19.25523437 -2.08203125 19.38671875 C-5.4375 19.3125 -5.4375 19.3125 -7.36328125 17.98828125 C-8.89026504 15.60618654 -8.85336588 14.08493922 -8.4375 11.3125 C-6.79453667 9.15839252 -5.84141002 8.40388551 -3.17578125 7.80078125 C-2.37527344 7.74277344 -1.57476562 7.68476563 -0.75 7.625 C0.05824219 7.55925781 0.86648438 7.49351562 1.69921875 7.42578125 C2.62154297 7.36970703 2.62154297 7.36970703 3.5625 7.3125 C3.5625 6.3225 3.5625 5.3325 3.5625 4.3125 C1.2525 4.3125 -1.0575 4.3125 -3.4375 4.3125 C-3.7675 5.3025 -4.0975 6.2925 -4.4375 7.3125 C-5.4275 6.9825 -6.4175 6.6525 -7.4375 6.3125 C-6.4639024 1.44451199 -4.98132443 0.02453854 0 0 Z M2.5625 10.3125 C0.5825 10.9725 -1.3975 11.6325 -3.4375 12.3125 C-3.4375 13.3025 -3.4375 14.2925 -3.4375 15.3125 C-2.4475 15.6425 -1.4575 15.9725 -0.4375 16.3125 C1.75288423 14.94081762 1.75288423 14.94081762 3.5625 13.3125 C3.2325 12.3225 2.9025 11.3325 2.5625 10.3125 Z " fill="#FDFBFB" transform="translate(507.4375,154.6875)"/>
<path d="M0 0 C1.32 0 2.64 0 4 0 C4.33 1.98 4.66 3.96 5 6 C5.9075 5.9175 6.815 5.835 7.75 5.75 C11 6 11 6 13.3125 7.5 C15.60929687 10.90266203 16.22769412 13.90963786 16 18 C14.64339984 20.97160035 13.29716559 22.70283441 11 25 C7.37 24.67 3.74 24.34 0 24 C0 16.08 0 8.16 0 0 Z M7 9 C3.74911961 10.69792816 3.74911961 10.69792816 3.1875 13.875 C2.99544685 17.07588583 3.27782857 18.36609075 5 21 C6.65 21 8.3 21 10 21 C11.70699172 18.38930678 12.00187288 17.04682188 11.875 13.875 C11.29645742 10.88259469 11.29645742 10.88259469 8.9375 9.625 C8.298125 9.41875 7.65875 9.2125 7 9 Z " fill="#FDFBFB" transform="translate(393,149)"/>
<path d="M0 0 C4.95 0 9.9 0 15 0 C15 4.29 15 8.58 15 13 C10.05 13 5.1 13 0 13 C0 8.71 0 4.42 0 0 Z " fill="#FDFBFB" transform="translate(459,70)"/>
<path d="M0 0 C1.32 0 2.64 0 4 0 C4.50615298 1.26839526 5.00469099 2.53983102 5.5 3.8125 C5.91765625 4.87404297 5.91765625 4.87404297 6.34375 5.95703125 C7 8 7 8 7 11 C7.66 11 8.32 11 9 11 C9.12375 10.29875 9.2475 9.5975 9.375 8.875 C10.03838345 5.82343613 10.97211955 2.94659062 12 0 C13.32 0 14.64 0 16 0 C15.33745894 5.4049402 13.66766253 10.19063502 11.75 15.25 C11.31880859 16.47203125 11.31880859 16.47203125 10.87890625 17.71875 C8.64926271 23.59955653 8.64926271 23.59955653 5.390625 25.609375 C3 26 3 26 1 25 C1.33 23.68 1.66 22.36 2 21 C2.99 21 3.98 21 5 21 C4.53027742 15.59819035 3.03270967 11.28744 0.83984375 6.33203125 C0 4 0 4 0 0 Z " fill="#FDFBFB" transform="translate(410,155)"/>
<path d="M0 0 C1.32 0 2.64 0 4 0 C5.32 3.3 6.64 6.6 8 10 C9.32 6.7 10.64 3.4 12 0 C13.65 0 15.3 0 17 0 C16.12900604 2.82249932 15.23030011 5.63024343 14.3125 8.4375 C14.06822266 9.23994141 13.82394531 10.04238281 13.57226562 10.86914062 C12.84702838 13.04485236 12.15366258 15.01676333 11 17 C8.29296875 18.03515625 8.29296875 18.03515625 6 18 C4.9936345 15.56495491 3.99473587 13.12729136 3 10.6875 C2.71382812 9.99720703 2.42765625 9.30691406 2.1328125 8.59570312 C0.91089256 5.58454326 0 3.28113016 0 0 Z " fill="#FDFBFB" transform="translate(569,155)"/>
<path d="M0 0 C1.32 0 2.64 0 4 0 C4 5.94 4 11.88 4 18 C2.68 18 1.36 18 0 18 C0 12.06 0 6.12 0 0 Z " fill="#FDFBFB" transform="translate(465,155)"/>
<path d="M0 0 C0.66 0.33 1.32 0.66 2 1 C-1.63 4.63 -5.26 8.26 -9 12 C-9 8.00102358 -7.64683965 6.93298448 -5 4 C-3.36643049 2.62631655 -1.7074998 1.28062485 0 0 Z " fill="#6097FF" transform="translate(164,124)"/>
<path d="M0 0 C0.66 0.33 1.32 0.66 2 1 C-1.63 4.63 -5.26 8.26 -9 12 C-9 8.00102358 -7.64683965 6.93298448 -5 4 C-3.36643049 2.62631655 -1.7074998 1.28062485 0 0 Z " fill="#7FB7FF" transform="translate(164,57)"/>
<path d="M0 0 C1.32 0 2.64 0 4 0 C4 1.32 4 2.64 4 4 C2.68 4 1.36 4 0 4 C0 2.68 0 1.36 0 0 Z " fill="#FDFBFB" transform="translate(465,149)"/>
<path d="" fill="#AAAAAA" transform="translate(0,0)"/>
<path d="" fill="#7F7F7F" transform="translate(0,0)"/>
<path d="" fill="#BFBFBF" transform="translate(0,0)"/>
<path d="" fill="#000000" transform="translate(0,0)"/>
<path d="" fill="#BFBFBF" transform="translate(0,0)"/>
<path d="" fill="#AAAAAA" transform="translate(0,0)"/>
<path d="" fill="#000000" transform="translate(0,0)"/>
<path d="" fill="#BFBFBF" transform="translate(0,0)"/>
<path d="" fill="#7F7F7F" transform="translate(0,0)"/>
<path d="" fill="#7F7F7F" transform="translate(0,0)"/>
<path d="" fill="#BFBFBF" transform="translate(0,0)"/>
<path d="" fill="#AAAAAA" transform="translate(0,0)"/>
<path d="" fill="#000000" transform="translate(0,0)"/>
<path d="" fill="#7F7F7F" transform="translate(0,0)"/>
<path d="" fill="#BFBFBF" transform="translate(0,0)"/>
<path d="" fill="#AAAAAA" transform="translate(0,0)"/>
<path d="" fill="#BFBFBF" transform="translate(0,0)"/>
<path d="" fill="#AAAAAA" transform="translate(0,0)"/>
<path d="" fill="#000000" transform="translate(0,0)"/>
<path d="" fill="#BFBFBF" transform="translate(0,0)"/>
<path d="" fill="#7F7F7F" transform="translate(0,0)"/>
<path d="" fill="#000000" transform="translate(0,0)"/>
<path d="" fill="#000000" transform="translate(0,0)"/>
</svg>
